<svg width="20" height="21" viewBox="0 0 20 21" fill="none" xmlns="http://www.w3.org/2000/svg">
<path d="M14.6084 6.72498L10.4417 2.55831C10.1975 2.31414 9.8017 2.31414 9.55836 2.55831L5.3917 6.72498C5.1467 6.96914 5.1467 7.36497 5.3917 7.60831C5.6367 7.85164 6.03086 7.85331 6.27503 7.60831L9.37503 4.50831V13C9.37503 13.345 9.65503 13.625 10 13.625C10.345 13.625 10.625 13.345 10.625 13V4.50831L13.725 7.60831C13.8467 7.73081 14.0067 7.79164 14.1667 7.79164C14.3267 7.79164 14.4867 7.73164 14.6084 7.60831C14.8525 7.36414 14.8525 6.96914 14.6084 6.72498Z" fill="#6E767D"/>
<path d="M16.4234 18.7866H3.57669C2.52335 18.7866 1.66669 17.93 1.66669 16.8766V12.1666C1.66669 11.8216 1.94669 11.5416 2.29169 11.5416C2.63669 11.5416 2.91669 11.8216 2.91669 12.1666V16.8766C2.91669 17.2408 3.21252 17.5366 3.57669 17.5366H16.4234C16.7875 17.5366 17.0834 17.2408 17.0834 16.8766V12.1666C17.0834 11.8216 17.3634 11.5416 17.7084 11.5416C18.0534 11.5416 18.3334 11.8216 18.3334 12.1666V16.8766C18.3334 17.93 17.4767 18.7866 16.4234 18.7866Z" fill="#6E767D"/>
</svg>
